<mxfile host="app.diagrams.net" agent="Mozilla/5.0 (Windows NT 10.0; Win64; x64) AppleWebKit/537.36 (KHTML, like Gecko) Chrome/135.0.0.0 Safari/537.36 Edg/135.0.0.0" version="26.2.9">
  <diagram name="Página-1" id="Or7OsUSpsI3kQpraoIsM">
    <mxGraphModel dx="782" dy="508" grid="1" gridSize="10" guides="1" tooltips="1" connect="1" arrows="1" fold="1" page="1" pageScale="1" pageWidth="827" pageHeight="1169" math="0" shadow="0">
      <root>
        <mxCell id="0" />
        <mxCell id="1" parent="0" />
        <mxCell id="Zmecsm2M4eyjPaAXFzBf-1" value="" style="rounded=0;whiteSpace=wrap;html=1;" vertex="1" parent="1">
          <mxGeometry x="100" y="90" width="120" height="60" as="geometry" />
        </mxCell>
        <mxCell id="Zmecsm2M4eyjPaAXFzBf-2" value="CLIENTE" style="text;html=1;align=center;verticalAlign=middle;resizable=0;points=[];autosize=1;strokeColor=none;fillColor=none;" vertex="1" parent="1">
          <mxGeometry x="125" y="100" width="70" height="30" as="geometry" />
        </mxCell>
        <mxCell id="Zmecsm2M4eyjPaAXFzBf-6" value="" style="endArrow=none;html=1;rounded=0;entryX=0.442;entryY=1.033;entryDx=0;entryDy=0;entryPerimeter=0;" edge="1" parent="1">
          <mxGeometry width="50" height="50" relative="1" as="geometry">
            <mxPoint x="60" y="200" as="sourcePoint" />
            <mxPoint x="103" y="150" as="targetPoint" />
          </mxGeometry>
        </mxCell>
        <mxCell id="Zmecsm2M4eyjPaAXFzBf-8" value="" style="endArrow=none;html=1;rounded=0;entryX=0.442;entryY=1.033;entryDx=0;entryDy=0;entryPerimeter=0;" edge="1" parent="1">
          <mxGeometry width="50" height="50" relative="1" as="geometry">
            <mxPoint x="110" y="230" as="sourcePoint" />
            <mxPoint x="130" y="150" as="targetPoint" />
          </mxGeometry>
        </mxCell>
        <mxCell id="Zmecsm2M4eyjPaAXFzBf-11" value="SALÁRIO" style="ellipse;whiteSpace=wrap;html=1;" vertex="1" parent="1">
          <mxGeometry x="305" y="160" width="70" height="40" as="geometry" />
        </mxCell>
        <mxCell id="Zmecsm2M4eyjPaAXFzBf-12" value="" style="endArrow=none;html=1;rounded=0;entryX=0.833;entryY=0.983;entryDx=0;entryDy=0;entryPerimeter=0;" edge="1" parent="1" target="Zmecsm2M4eyjPaAXFzBf-1">
          <mxGeometry width="50" height="50" relative="1" as="geometry">
            <mxPoint x="230" y="200" as="sourcePoint" />
            <mxPoint x="323" y="162" as="targetPoint" />
          </mxGeometry>
        </mxCell>
        <mxCell id="Zmecsm2M4eyjPaAXFzBf-15" value="" style="endArrow=none;html=1;rounded=0;entryX=1.025;entryY=0.65;entryDx=0;entryDy=0;exitX=0;exitY=0;exitDx=0;exitDy=0;entryPerimeter=0;" edge="1" parent="1" source="Zmecsm2M4eyjPaAXFzBf-11" target="Zmecsm2M4eyjPaAXFzBf-1">
          <mxGeometry width="50" height="50" relative="1" as="geometry">
            <mxPoint x="260" y="200" as="sourcePoint" />
            <mxPoint x="220" y="160" as="targetPoint" />
            <Array as="points" />
          </mxGeometry>
        </mxCell>
        <mxCell id="Zmecsm2M4eyjPaAXFzBf-16" value="" style="endArrow=none;html=1;rounded=0;entryX=0.442;entryY=1.033;entryDx=0;entryDy=0;entryPerimeter=0;" edge="1" parent="1">
          <mxGeometry width="50" height="50" relative="1" as="geometry">
            <mxPoint x="160" y="210" as="sourcePoint" />
            <mxPoint x="163" y="151" as="targetPoint" />
          </mxGeometry>
        </mxCell>
        <mxCell id="Zmecsm2M4eyjPaAXFzBf-17" value="" style="endArrow=none;html=1;rounded=0;entryX=0.65;entryY=0.933;entryDx=0;entryDy=0;entryPerimeter=0;" edge="1" parent="1" target="Zmecsm2M4eyjPaAXFzBf-1">
          <mxGeometry width="50" height="50" relative="1" as="geometry">
            <mxPoint x="210" y="240" as="sourcePoint" />
            <mxPoint x="233" y="150" as="targetPoint" />
          </mxGeometry>
        </mxCell>
        <mxCell id="Zmecsm2M4eyjPaAXFzBf-18" value="CPF" style="ellipse;whiteSpace=wrap;html=1;" vertex="1" parent="1">
          <mxGeometry x="20" y="190" width="70" height="40" as="geometry" />
        </mxCell>
        <mxCell id="Zmecsm2M4eyjPaAXFzBf-19" value="NOME" style="ellipse;whiteSpace=wrap;html=1;" vertex="1" parent="1">
          <mxGeometry x="70" y="230" width="70" height="40" as="geometry" />
        </mxCell>
        <mxCell id="Zmecsm2M4eyjPaAXFzBf-20" value="NOME" style="ellipse;whiteSpace=wrap;html=1;" vertex="1" parent="1">
          <mxGeometry x="125" y="200" width="70" height="40" as="geometry" />
        </mxCell>
        <mxCell id="Zmecsm2M4eyjPaAXFzBf-21" value="E-MAIL" style="ellipse;whiteSpace=wrap;html=1;" vertex="1" parent="1">
          <mxGeometry x="170" y="240" width="70" height="40" as="geometry" />
        </mxCell>
        <mxCell id="Zmecsm2M4eyjPaAXFzBf-22" value="GENERO" style="ellipse;whiteSpace=wrap;html=1;" vertex="1" parent="1">
          <mxGeometry x="210" y="200" width="70" height="40" as="geometry" />
        </mxCell>
        <mxCell id="Zmecsm2M4eyjPaAXFzBf-24" value="DIA, MES&amp;nbsp;" style="ellipse;whiteSpace=wrap;html=1;" vertex="1" parent="1">
          <mxGeometry x="330" y="110" width="70" height="40" as="geometry" />
        </mxCell>
        <mxCell id="Zmecsm2M4eyjPaAXFzBf-25" value="UF" style="ellipse;whiteSpace=wrap;html=1;" vertex="1" parent="1">
          <mxGeometry x="315" y="60" width="70" height="40" as="geometry" />
        </mxCell>
        <mxCell id="Zmecsm2M4eyjPaAXFzBf-26" value="BAIRRO" style="ellipse;whiteSpace=wrap;html=1;" vertex="1" parent="1">
          <mxGeometry x="135" width="70" height="40" as="geometry" />
        </mxCell>
        <mxCell id="Zmecsm2M4eyjPaAXFzBf-27" value="CIDADE" style="ellipse;whiteSpace=wrap;html=1;" vertex="1" parent="1">
          <mxGeometry x="240" y="10" width="70" height="40" as="geometry" />
        </mxCell>
        <mxCell id="Zmecsm2M4eyjPaAXFzBf-28" value="" style="endArrow=none;html=1;rounded=0;entryX=1;entryY=0.5;entryDx=0;entryDy=0;exitX=0.014;exitY=0.325;exitDx=0;exitDy=0;exitPerimeter=0;" edge="1" parent="1" source="Zmecsm2M4eyjPaAXFzBf-24" target="Zmecsm2M4eyjPaAXFzBf-1">
          <mxGeometry width="50" height="50" relative="1" as="geometry">
            <mxPoint x="240" y="210" as="sourcePoint" />
            <mxPoint x="210" y="159" as="targetPoint" />
            <Array as="points" />
          </mxGeometry>
        </mxCell>
        <mxCell id="Zmecsm2M4eyjPaAXFzBf-29" value="" style="endArrow=none;html=1;rounded=0;entryX=1;entryY=0.25;entryDx=0;entryDy=0;exitX=0;exitY=1;exitDx=0;exitDy=0;" edge="1" parent="1" source="Zmecsm2M4eyjPaAXFzBf-25" target="Zmecsm2M4eyjPaAXFzBf-1">
          <mxGeometry width="50" height="50" relative="1" as="geometry">
            <mxPoint x="331" y="153" as="sourcePoint" />
            <mxPoint x="230" y="130" as="targetPoint" />
            <Array as="points" />
          </mxGeometry>
        </mxCell>
        <mxCell id="Zmecsm2M4eyjPaAXFzBf-31" value="" style="endArrow=none;html=1;rounded=0;entryX=0.567;entryY=0;entryDx=0;entryDy=0;entryPerimeter=0;" edge="1" parent="1">
          <mxGeometry width="50" height="50" relative="1" as="geometry">
            <mxPoint x="257" y="50" as="sourcePoint" />
            <mxPoint x="195" y="90" as="targetPoint" />
            <Array as="points">
              <mxPoint x="257" y="50" />
            </Array>
          </mxGeometry>
        </mxCell>
        <mxCell id="Zmecsm2M4eyjPaAXFzBf-33" value="VENDA" style="rounded=0;whiteSpace=wrap;html=1;" vertex="1" parent="1">
          <mxGeometry x="590" y="150" width="120" height="60" as="geometry" />
        </mxCell>
        <mxCell id="Zmecsm2M4eyjPaAXFzBf-34" value="PRODUTO" style="rounded=0;whiteSpace=wrap;html=1;" vertex="1" parent="1">
          <mxGeometry x="110" y="350" width="120" height="60" as="geometry" />
        </mxCell>
        <mxCell id="Zmecsm2M4eyjPaAXFzBf-35" value="FORNECEDOR" style="rounded=0;whiteSpace=wrap;html=1;" vertex="1" parent="1">
          <mxGeometry x="320" y="560" width="120" height="60" as="geometry" />
        </mxCell>
        <mxCell id="Zmecsm2M4eyjPaAXFzBf-38" value="" style="endArrow=none;html=1;rounded=0;entryX=-0.025;entryY=0.15;entryDx=0;entryDy=0;entryPerimeter=0;" edge="1" parent="1" source="Zmecsm2M4eyjPaAXFzBf-41" target="Zmecsm2M4eyjPaAXFzBf-34">
          <mxGeometry width="50" height="50" relative="1" as="geometry">
            <mxPoint x="60" y="470" as="sourcePoint" />
            <mxPoint x="80" y="390" as="targetPoint" />
          </mxGeometry>
        </mxCell>
        <mxCell id="Zmecsm2M4eyjPaAXFzBf-39" value="" style="endArrow=none;html=1;rounded=0;exitX=0.6;exitY=0;exitDx=0;exitDy=0;exitPerimeter=0;" edge="1" parent="1" source="Zmecsm2M4eyjPaAXFzBf-42" target="Zmecsm2M4eyjPaAXFzBf-34">
          <mxGeometry width="50" height="50" relative="1" as="geometry">
            <mxPoint x="137" y="490" as="sourcePoint" />
            <mxPoint x="140" y="431" as="targetPoint" />
            <Array as="points">
              <mxPoint x="60" y="450" />
            </Array>
          </mxGeometry>
        </mxCell>
        <mxCell id="Zmecsm2M4eyjPaAXFzBf-40" value="" style="endArrow=none;html=1;rounded=0;exitX=0.333;exitY=0.125;exitDx=0;exitDy=0;exitPerimeter=0;entryX=1;entryY=0.5;entryDx=0;entryDy=0;" edge="1" parent="1" source="Zmecsm2M4eyjPaAXFzBf-49" target="Zmecsm2M4eyjPaAXFzBf-34">
          <mxGeometry width="50" height="50" relative="1" as="geometry">
            <mxPoint x="360" y="420" as="sourcePoint" />
            <mxPoint x="120" y="410" as="targetPoint" />
            <Array as="points">
              <mxPoint x="310" y="420" />
            </Array>
          </mxGeometry>
        </mxCell>
        <mxCell id="Zmecsm2M4eyjPaAXFzBf-41" value="COD BARRAS" style="ellipse;whiteSpace=wrap;html=1;" vertex="1" parent="1">
          <mxGeometry x="20" y="290" width="70" height="40" as="geometry" />
        </mxCell>
        <mxCell id="Zmecsm2M4eyjPaAXFzBf-42" value="DESC&amp;nbsp;&lt;div&gt;PRODUTO&lt;/div&gt;" style="ellipse;whiteSpace=wrap;html=1;" vertex="1" parent="1">
          <mxGeometry x="20" y="450" width="70" height="40" as="geometry" />
        </mxCell>
        <mxCell id="Zmecsm2M4eyjPaAXFzBf-43" value="REGISTO" style="ellipse;whiteSpace=wrap;html=1;" vertex="1" parent="1">
          <mxGeometry x="110" y="490" width="70" height="40" as="geometry" />
        </mxCell>
        <mxCell id="Zmecsm2M4eyjPaAXFzBf-45" value="" style="endArrow=none;html=1;rounded=0;entryX=1;entryY=1;entryDx=0;entryDy=0;exitX=0.414;exitY=-0.05;exitDx=0;exitDy=0;exitPerimeter=0;" edge="1" parent="1" source="Zmecsm2M4eyjPaAXFzBf-46" target="Zmecsm2M4eyjPaAXFzBf-34">
          <mxGeometry width="50" height="50" relative="1" as="geometry">
            <mxPoint x="307" y="490" as="sourcePoint" />
            <mxPoint x="390" y="400" as="targetPoint" />
            <Array as="points">
              <mxPoint x="230" y="410" />
            </Array>
          </mxGeometry>
        </mxCell>
        <mxCell id="Zmecsm2M4eyjPaAXFzBf-46" value="COD BARRAS" style="ellipse;whiteSpace=wrap;html=1;" vertex="1" parent="1">
          <mxGeometry x="210" y="470" width="70" height="40" as="geometry" />
        </mxCell>
        <mxCell id="Zmecsm2M4eyjPaAXFzBf-49" value="VENDE" style="rhombus;whiteSpace=wrap;html=1;" vertex="1" parent="1">
          <mxGeometry x="310" y="430" width="120" height="80" as="geometry" />
        </mxCell>
        <mxCell id="Zmecsm2M4eyjPaAXFzBf-52" value="REGISTO" style="ellipse;whiteSpace=wrap;html=1;" vertex="1" parent="1">
          <mxGeometry x="230" y="630" width="70" height="40" as="geometry" />
        </mxCell>
        <mxCell id="Zmecsm2M4eyjPaAXFzBf-54" value="RAZÃO SOCIAL" style="ellipse;whiteSpace=wrap;html=1;" vertex="1" parent="1">
          <mxGeometry x="310" y="670" width="70" height="40" as="geometry" />
        </mxCell>
        <mxCell id="Zmecsm2M4eyjPaAXFzBf-59" style="edgeStyle=orthogonalEdgeStyle;rounded=0;orthogonalLoop=1;jettySize=auto;html=1;exitX=1;exitY=0.5;exitDx=0;exitDy=0;" edge="1" parent="1" source="Zmecsm2M4eyjPaAXFzBf-55">
          <mxGeometry relative="1" as="geometry">
            <mxPoint x="540" y="650" as="targetPoint" />
          </mxGeometry>
        </mxCell>
        <mxCell id="Zmecsm2M4eyjPaAXFzBf-55" value="CIDADE" style="ellipse;whiteSpace=wrap;html=1;" vertex="1" parent="1">
          <mxGeometry x="470" y="630" width="80" height="40" as="geometry" />
        </mxCell>
        <mxCell id="Zmecsm2M4eyjPaAXFzBf-56" value="UF" style="ellipse;whiteSpace=wrap;html=1;" vertex="1" parent="1">
          <mxGeometry x="490" y="560" width="70" height="40" as="geometry" />
        </mxCell>
        <mxCell id="Zmecsm2M4eyjPaAXFzBf-58" value="NOME FANTASIA" style="ellipse;whiteSpace=wrap;html=1;" vertex="1" parent="1">
          <mxGeometry x="400" y="660" width="70" height="40" as="geometry" />
        </mxCell>
        <mxCell id="Zmecsm2M4eyjPaAXFzBf-60" value="" style="endArrow=none;html=1;rounded=0;entryX=0;entryY=0.75;entryDx=0;entryDy=0;" edge="1" parent="1" target="Zmecsm2M4eyjPaAXFzBf-35">
          <mxGeometry width="50" height="50" relative="1" as="geometry">
            <mxPoint x="289" y="636.5" as="sourcePoint" />
            <mxPoint x="300" y="543.5" as="targetPoint" />
          </mxGeometry>
        </mxCell>
        <mxCell id="Zmecsm2M4eyjPaAXFzBf-61" value="" style="endArrow=none;html=1;rounded=0;entryX=0.25;entryY=1;entryDx=0;entryDy=0;exitX=0.357;exitY=-0.05;exitDx=0;exitDy=0;exitPerimeter=0;" edge="1" parent="1" source="Zmecsm2M4eyjPaAXFzBf-54" target="Zmecsm2M4eyjPaAXFzBf-35">
          <mxGeometry width="50" height="50" relative="1" as="geometry">
            <mxPoint x="299" y="646.5" as="sourcePoint" />
            <mxPoint x="330" y="615" as="targetPoint" />
          </mxGeometry>
        </mxCell>
        <mxCell id="Zmecsm2M4eyjPaAXFzBf-62" value="" style="endArrow=none;html=1;rounded=0;entryX=0.25;entryY=1;entryDx=0;entryDy=0;exitX=0.5;exitY=0;exitDx=0;exitDy=0;" edge="1" parent="1" source="Zmecsm2M4eyjPaAXFzBf-58">
          <mxGeometry width="50" height="50" relative="1" as="geometry">
            <mxPoint x="400" y="668" as="sourcePoint" />
            <mxPoint x="415" y="620" as="targetPoint" />
          </mxGeometry>
        </mxCell>
        <mxCell id="Zmecsm2M4eyjPaAXFzBf-64" value="" style="endArrow=none;html=1;rounded=0;" edge="1" parent="1" target="Zmecsm2M4eyjPaAXFzBf-35">
          <mxGeometry width="50" height="50" relative="1" as="geometry">
            <mxPoint x="490" y="580" as="sourcePoint" />
            <mxPoint x="425" y="630" as="targetPoint" />
            <Array as="points" />
          </mxGeometry>
        </mxCell>
        <mxCell id="Zmecsm2M4eyjPaAXFzBf-65" value="" style="endArrow=none;html=1;rounded=0;exitX=0;exitY=0;exitDx=0;exitDy=0;entryX=1;entryY=0.75;entryDx=0;entryDy=0;" edge="1" parent="1" source="Zmecsm2M4eyjPaAXFzBf-55" target="Zmecsm2M4eyjPaAXFzBf-35">
          <mxGeometry width="50" height="50" relative="1" as="geometry">
            <mxPoint x="500" y="590" as="sourcePoint" />
            <mxPoint x="450" y="595" as="targetPoint" />
            <Array as="points" />
          </mxGeometry>
        </mxCell>
        <mxCell id="Zmecsm2M4eyjPaAXFzBf-67" value="" style="endArrow=none;html=1;rounded=0;entryX=0.442;entryY=1.017;entryDx=0;entryDy=0;entryPerimeter=0;" edge="1" parent="1">
          <mxGeometry width="50" height="50" relative="1" as="geometry">
            <mxPoint x="155" y="490" as="sourcePoint" />
            <mxPoint x="165.5" y="410" as="targetPoint" />
          </mxGeometry>
        </mxCell>
        <mxCell id="Zmecsm2M4eyjPaAXFzBf-68" value="" style="endArrow=none;html=1;rounded=0;exitX=0.5;exitY=0;exitDx=0;exitDy=0;entryX=0.5;entryY=1;entryDx=0;entryDy=0;" edge="1" parent="1" source="Zmecsm2M4eyjPaAXFzBf-35" target="Zmecsm2M4eyjPaAXFzBf-49">
          <mxGeometry width="50" height="50" relative="1" as="geometry">
            <mxPoint x="360" y="450" as="sourcePoint" />
            <mxPoint x="240" y="390" as="targetPoint" />
            <Array as="points" />
          </mxGeometry>
        </mxCell>
        <mxCell id="Zmecsm2M4eyjPaAXFzBf-69" value="1" style="text;html=1;align=center;verticalAlign=middle;resizable=0;points=[];autosize=1;strokeColor=none;fillColor=none;" vertex="1" parent="1">
          <mxGeometry x="395" y="528" width="30" height="30" as="geometry" />
        </mxCell>
        <mxCell id="Zmecsm2M4eyjPaAXFzBf-70" value="N" style="text;html=1;align=center;verticalAlign=middle;resizable=0;points=[];autosize=1;strokeColor=none;fillColor=none;" vertex="1" parent="1">
          <mxGeometry x="345" y="408" width="30" height="30" as="geometry" />
        </mxCell>
        <mxCell id="Zmecsm2M4eyjPaAXFzBf-71" value="VENDEDOR" style="rounded=0;whiteSpace=wrap;html=1;" vertex="1" parent="1">
          <mxGeometry x="570" y="420" width="120" height="60" as="geometry" />
        </mxCell>
        <mxCell id="Zmecsm2M4eyjPaAXFzBf-72" value="REALIZA" style="rhombus;whiteSpace=wrap;html=1;fontStyle=1" vertex="1" parent="1">
          <mxGeometry x="565" y="270" width="120" height="80" as="geometry" />
        </mxCell>
        <mxCell id="Zmecsm2M4eyjPaAXFzBf-73" value="1" style="text;html=1;align=center;verticalAlign=middle;resizable=0;points=[];autosize=1;strokeColor=none;fillColor=none;" vertex="1" parent="1">
          <mxGeometry x="590" y="365" width="30" height="30" as="geometry" />
        </mxCell>
        <mxCell id="Zmecsm2M4eyjPaAXFzBf-74" value="N" style="text;html=1;align=center;verticalAlign=middle;resizable=0;points=[];autosize=1;strokeColor=none;fillColor=none;" vertex="1" parent="1">
          <mxGeometry x="660" y="260" width="30" height="30" as="geometry" />
        </mxCell>
        <mxCell id="Zmecsm2M4eyjPaAXFzBf-75" value="REGISTRO DE&amp;nbsp;" style="rhombus;whiteSpace=wrap;html=1;" vertex="1" parent="1">
          <mxGeometry x="395" y="328" width="120" height="80" as="geometry" />
        </mxCell>
        <mxCell id="Zmecsm2M4eyjPaAXFzBf-76" value="" style="endArrow=none;html=1;rounded=0;entryX=0.833;entryY=0.983;entryDx=0;entryDy=0;entryPerimeter=0;" edge="1" parent="1">
          <mxGeometry width="50" height="50" relative="1" as="geometry">
            <mxPoint x="720" y="528" as="sourcePoint" />
            <mxPoint x="690" y="477" as="targetPoint" />
          </mxGeometry>
        </mxCell>
        <mxCell id="Zmecsm2M4eyjPaAXFzBf-77" value="" style="endArrow=none;html=1;rounded=0;entryX=0.442;entryY=1.033;entryDx=0;entryDy=0;entryPerimeter=0;" edge="1" parent="1">
          <mxGeometry width="50" height="50" relative="1" as="geometry">
            <mxPoint x="603.5" y="539" as="sourcePoint" />
            <mxPoint x="606.5" y="480" as="targetPoint" />
          </mxGeometry>
        </mxCell>
        <mxCell id="Zmecsm2M4eyjPaAXFzBf-78" value="" style="endArrow=none;html=1;rounded=0;entryX=0.65;entryY=0.933;entryDx=0;entryDy=0;entryPerimeter=0;" edge="1" parent="1">
          <mxGeometry width="50" height="50" relative="1" as="geometry">
            <mxPoint x="670" y="554" as="sourcePoint" />
            <mxPoint x="643" y="480" as="targetPoint" />
          </mxGeometry>
        </mxCell>
        <mxCell id="Zmecsm2M4eyjPaAXFzBf-79" value="NOME" style="ellipse;whiteSpace=wrap;html=1;" vertex="1" parent="1">
          <mxGeometry x="565" y="540" width="70" height="40" as="geometry" />
        </mxCell>
        <mxCell id="Zmecsm2M4eyjPaAXFzBf-80" value="E-MAIL" style="ellipse;whiteSpace=wrap;html=1;" vertex="1" parent="1">
          <mxGeometry x="640" y="550" width="70" height="40" as="geometry" />
        </mxCell>
        <mxCell id="Zmecsm2M4eyjPaAXFzBf-81" value="GENERO" style="ellipse;whiteSpace=wrap;html=1;" vertex="1" parent="1">
          <mxGeometry x="710" y="523" width="70" height="40" as="geometry" />
        </mxCell>
        <mxCell id="Zmecsm2M4eyjPaAXFzBf-82" value="REGISTO" style="ellipse;whiteSpace=wrap;html=1;" vertex="1" parent="1">
          <mxGeometry x="460" y="470" width="70" height="40" as="geometry" />
        </mxCell>
        <mxCell id="Zmecsm2M4eyjPaAXFzBf-83" value="" style="endArrow=none;html=1;rounded=0;entryX=0;entryY=0.75;entryDx=0;entryDy=0;exitX=0.957;exitY=0.25;exitDx=0;exitDy=0;exitPerimeter=0;" edge="1" parent="1" source="Zmecsm2M4eyjPaAXFzBf-82" target="Zmecsm2M4eyjPaAXFzBf-71">
          <mxGeometry width="50" height="50" relative="1" as="geometry">
            <mxPoint x="535" y="500" as="sourcePoint" />
            <mxPoint x="545.5" y="420" as="targetPoint" />
          </mxGeometry>
        </mxCell>
        <mxCell id="Zmecsm2M4eyjPaAXFzBf-84" value="" style="endArrow=none;html=1;rounded=0;" edge="1" parent="1">
          <mxGeometry width="50" height="50" relative="1" as="geometry">
            <mxPoint x="580" y="480" as="sourcePoint" />
            <mxPoint x="550" y="510" as="targetPoint" />
            <Array as="points" />
          </mxGeometry>
        </mxCell>
        <mxCell id="Zmecsm2M4eyjPaAXFzBf-85" value="CPF" style="ellipse;whiteSpace=wrap;html=1;" vertex="1" parent="1">
          <mxGeometry x="500" y="510" width="70" height="40" as="geometry" />
        </mxCell>
        <mxCell id="Zmecsm2M4eyjPaAXFzBf-87" value="" style="endArrow=none;html=1;rounded=0;exitX=0.133;exitY=0.6;exitDx=0;exitDy=0;exitPerimeter=0;entryX=1;entryY=0.25;entryDx=0;entryDy=0;" edge="1" parent="1" source="Zmecsm2M4eyjPaAXFzBf-75" target="Zmecsm2M4eyjPaAXFzBf-34">
          <mxGeometry width="50" height="50" relative="1" as="geometry">
            <mxPoint x="360" y="450" as="sourcePoint" />
            <mxPoint x="240" y="390" as="targetPoint" />
            <Array as="points" />
          </mxGeometry>
        </mxCell>
        <mxCell id="Zmecsm2M4eyjPaAXFzBf-88" value="" style="endArrow=none;html=1;rounded=0;entryX=0;entryY=1;entryDx=0;entryDy=0;" edge="1" parent="1" source="Zmecsm2M4eyjPaAXFzBf-75" target="Zmecsm2M4eyjPaAXFzBf-33">
          <mxGeometry width="50" height="50" relative="1" as="geometry">
            <mxPoint x="386" y="316" as="sourcePoint" />
            <mxPoint x="240" y="375" as="targetPoint" />
            <Array as="points" />
          </mxGeometry>
        </mxCell>
        <mxCell id="Zmecsm2M4eyjPaAXFzBf-89" value="1" style="text;html=1;align=center;verticalAlign=middle;resizable=0;points=[];autosize=1;strokeColor=none;fillColor=none;" vertex="1" parent="1">
          <mxGeometry x="355" y="335" width="30" height="30" as="geometry" />
        </mxCell>
        <mxCell id="Zmecsm2M4eyjPaAXFzBf-90" value="N" style="text;html=1;align=center;verticalAlign=middle;resizable=0;points=[];autosize=1;strokeColor=none;fillColor=none;" vertex="1" parent="1">
          <mxGeometry x="460" y="290" width="30" height="30" as="geometry" />
        </mxCell>
        <mxCell id="Zmecsm2M4eyjPaAXFzBf-91" value="" style="endArrow=none;html=1;rounded=0;exitX=0.5;exitY=0;exitDx=0;exitDy=0;" edge="1" parent="1" source="Zmecsm2M4eyjPaAXFzBf-71" target="Zmecsm2M4eyjPaAXFzBf-72">
          <mxGeometry width="50" height="50" relative="1" as="geometry">
            <mxPoint x="360" y="450" as="sourcePoint" />
            <mxPoint x="240" y="390" as="targetPoint" />
            <Array as="points" />
          </mxGeometry>
        </mxCell>
        <mxCell id="Zmecsm2M4eyjPaAXFzBf-92" value="" style="endArrow=none;html=1;rounded=0;exitX=0.5;exitY=0;exitDx=0;exitDy=0;entryX=0.633;entryY=1;entryDx=0;entryDy=0;entryPerimeter=0;" edge="1" parent="1" target="Zmecsm2M4eyjPaAXFzBf-33">
          <mxGeometry width="50" height="50" relative="1" as="geometry">
            <mxPoint x="651.5" y="285.5" as="sourcePoint" />
            <mxPoint x="648.5" y="214.5" as="targetPoint" />
            <Array as="points" />
          </mxGeometry>
        </mxCell>
        <mxCell id="Zmecsm2M4eyjPaAXFzBf-93" value="" style="endArrow=none;html=1;rounded=0;entryX=0.442;entryY=1.033;entryDx=0;entryDy=0;entryPerimeter=0;" edge="1" parent="1">
          <mxGeometry width="50" height="50" relative="1" as="geometry">
            <mxPoint x="540" y="150" as="sourcePoint" />
            <mxPoint x="590" y="170" as="targetPoint" />
          </mxGeometry>
        </mxCell>
        <mxCell id="Zmecsm2M4eyjPaAXFzBf-94" value="CPF" style="ellipse;whiteSpace=wrap;html=1;" vertex="1" parent="1">
          <mxGeometry x="475" y="120" width="70" height="40" as="geometry" />
        </mxCell>
        <mxCell id="Zmecsm2M4eyjPaAXFzBf-95" value="REGISTO" style="ellipse;whiteSpace=wrap;html=1;" vertex="1" parent="1">
          <mxGeometry x="545" y="70" width="70" height="40" as="geometry" />
        </mxCell>
        <mxCell id="Zmecsm2M4eyjPaAXFzBf-97" value="COD BARRAS" style="ellipse;whiteSpace=wrap;html=1;" vertex="1" parent="1">
          <mxGeometry x="620" y="60" width="70" height="40" as="geometry" />
        </mxCell>
        <mxCell id="Zmecsm2M4eyjPaAXFzBf-98" value="" style="endArrow=none;html=1;rounded=0;entryX=0.6;entryY=0.95;entryDx=0;entryDy=0;entryPerimeter=0;" edge="1" parent="1" target="Zmecsm2M4eyjPaAXFzBf-95">
          <mxGeometry width="50" height="50" relative="1" as="geometry">
            <mxPoint x="609.5" y="150" as="sourcePoint" />
            <mxPoint x="620" y="70" as="targetPoint" />
          </mxGeometry>
        </mxCell>
        <mxCell id="Zmecsm2M4eyjPaAXFzBf-101" value="" style="endArrow=none;html=1;rounded=0;entryX=0.357;entryY=1.075;entryDx=0;entryDy=0;entryPerimeter=0;exitX=0.367;exitY=0;exitDx=0;exitDy=0;exitPerimeter=0;" edge="1" parent="1" source="Zmecsm2M4eyjPaAXFzBf-33" target="Zmecsm2M4eyjPaAXFzBf-97">
          <mxGeometry width="50" height="50" relative="1" as="geometry">
            <mxPoint x="619.5" y="160" as="sourcePoint" />
            <mxPoint x="597" y="118" as="targetPoint" />
            <Array as="points" />
          </mxGeometry>
        </mxCell>
        <mxCell id="Zmecsm2M4eyjPaAXFzBf-102" value="DATA&lt;div&gt;HORA&lt;/div&gt;" style="ellipse;whiteSpace=wrap;html=1;" vertex="1" parent="1">
          <mxGeometry x="700" y="70" width="70" height="40" as="geometry" />
        </mxCell>
        <mxCell id="Zmecsm2M4eyjPaAXFzBf-103" value="" style="endArrow=none;html=1;rounded=0;entryX=0.357;entryY=1.075;entryDx=0;entryDy=0;entryPerimeter=0;exitX=0.367;exitY=0;exitDx=0;exitDy=0;exitPerimeter=0;" edge="1" parent="1" target="Zmecsm2M4eyjPaAXFzBf-102">
          <mxGeometry width="50" height="50" relative="1" as="geometry">
            <mxPoint x="694" y="150" as="sourcePoint" />
            <mxPoint x="657" y="118" as="targetPoint" />
            <Array as="points" />
          </mxGeometry>
        </mxCell>
        <mxCell id="Zmecsm2M4eyjPaAXFzBf-104" value="VALOR" style="ellipse;whiteSpace=wrap;html=1;" vertex="1" parent="1">
          <mxGeometry x="740" y="120" width="70" height="40" as="geometry" />
        </mxCell>
        <mxCell id="Zmecsm2M4eyjPaAXFzBf-105" value="" style="endArrow=none;html=1;rounded=0;entryX=0.357;entryY=1.075;entryDx=0;entryDy=0;entryPerimeter=0;exitX=1;exitY=0.5;exitDx=0;exitDy=0;" edge="1" parent="1" target="Zmecsm2M4eyjPaAXFzBf-104" source="Zmecsm2M4eyjPaAXFzBf-33">
          <mxGeometry width="50" height="50" relative="1" as="geometry">
            <mxPoint x="720" y="170" as="sourcePoint" />
            <mxPoint x="667" y="158" as="targetPoint" />
            <Array as="points" />
          </mxGeometry>
        </mxCell>
        <mxCell id="Zmecsm2M4eyjPaAXFzBf-106" value="EFETUA" style="rhombus;whiteSpace=wrap;html=1;" vertex="1" parent="1">
          <mxGeometry x="330" y="220" width="120" height="80" as="geometry" />
        </mxCell>
        <mxCell id="Zmecsm2M4eyjPaAXFzBf-109" value="" style="endArrow=none;html=1;rounded=0;exitX=0.2;exitY=0.263;exitDx=0;exitDy=0;exitPerimeter=0;entryX=1;entryY=0.25;entryDx=0;entryDy=0;" edge="1" parent="1" source="Zmecsm2M4eyjPaAXFzBf-106">
          <mxGeometry width="50" height="50" relative="1" as="geometry">
            <mxPoint x="401" y="150" as="sourcePoint" />
            <mxPoint x="220" y="139" as="targetPoint" />
            <Array as="points" />
          </mxGeometry>
        </mxCell>
        <mxCell id="Zmecsm2M4eyjPaAXFzBf-110" value="" style="endArrow=none;html=1;rounded=0;entryX=1;entryY=0;entryDx=0;entryDy=0;" edge="1" parent="1" source="Zmecsm2M4eyjPaAXFzBf-33" target="Zmecsm2M4eyjPaAXFzBf-106">
          <mxGeometry width="50" height="50" relative="1" as="geometry">
            <mxPoint x="379" y="261" as="sourcePoint" />
            <mxPoint x="230" y="149" as="targetPoint" />
            <Array as="points" />
          </mxGeometry>
        </mxCell>
        <mxCell id="Zmecsm2M4eyjPaAXFzBf-112" value="" style="endArrow=none;html=1;rounded=0;entryX=0.5;entryY=1;entryDx=0;entryDy=0;exitX=0.442;exitY=0.05;exitDx=0;exitDy=0;exitPerimeter=0;" edge="1" parent="1" source="Zmecsm2M4eyjPaAXFzBf-1" target="Zmecsm2M4eyjPaAXFzBf-26">
          <mxGeometry width="50" height="50" relative="1" as="geometry">
            <mxPoint x="170" y="220" as="sourcePoint" />
            <mxPoint x="173" y="161" as="targetPoint" />
            <Array as="points">
              <mxPoint x="170" y="40" />
            </Array>
          </mxGeometry>
        </mxCell>
        <mxCell id="Zmecsm2M4eyjPaAXFzBf-113" style="edgeStyle=orthogonalEdgeStyle;rounded=0;orthogonalLoop=1;jettySize=auto;html=1;exitX=1;exitY=1;exitDx=0;exitDy=0;entryX=1;entryY=0.75;entryDx=0;entryDy=0;" edge="1" parent="1" source="Zmecsm2M4eyjPaAXFzBf-1" target="Zmecsm2M4eyjPaAXFzBf-1">
          <mxGeometry relative="1" as="geometry" />
        </mxCell>
        <mxCell id="Zmecsm2M4eyjPaAXFzBf-114" value="1" style="text;html=1;align=center;verticalAlign=middle;resizable=0;points=[];autosize=1;strokeColor=none;fillColor=none;" vertex="1" parent="1">
          <mxGeometry x="300" y="230" width="30" height="30" as="geometry" />
        </mxCell>
        <mxCell id="Zmecsm2M4eyjPaAXFzBf-115" value="N" style="text;html=1;align=center;verticalAlign=middle;resizable=0;points=[];autosize=1;strokeColor=none;fillColor=none;" vertex="1" parent="1">
          <mxGeometry x="405" y="208" width="30" height="30" as="geometry" />
        </mxCell>
      </root>
    </mxGraphModel>
  </diagram>
</mxfile>
